# File created by Blade
# Date/Time:  Wed Apr 08 14:54:55 2015
#---------------------------------------------------------
:version 1.10
:name HOM
:units
  mass 1.0
  length 1.000000
  angle deg
:documentation
     Acclaim Skeleton File
:root
   axis xyz
   order TX TY TZ RX RY RZ
   position 0.000000 0.000000 0.000000
   orientation 0 0 0
:bonedata
   begin
      id 1
      name Spine_dum
      direction 0.000000 1.000000 0.000000
      length 4.885285
      axis 0.0 0.0 0.0 xyz
   end
   begin
      id 2
      name LeftUpLeg_dum
      direction 1.000000 0.000000 0.000000
      length 2.672193
      axis 0.0 0.0 0.0 xyz
   end
   begin
      id 3
      name RightUpLeg_dum
      direction -1.000000 0.000000 0.000000
      length 2.672193
      axis 0.0 0.0 0.0 xyz
   end
   begin
      id 4
      name Spine
      direction 0.000000 1.000000 0.000000
      length 0.000000
      axis 0.0 0.0 0.0 xyz
      dof rx ry rz
   end
   begin
      id 5
      name Spine_dum1
      direction 0.000000 1.000000 0.000000
      length 16.494159
      axis 0.0 0.0 0.0 xyz
   end
   begin
      id 6
      name Spine_dum2
      direction 0.000000 1.000000 0.000000
      length 10.663448
      axis 0.0 0.0 0.0 xyz
   end
   begin
      id 7
      name Spine_dum3
      direction 0.000000 1.000000 0.000000
      length 10.663448
      axis 0.0 0.0 0.0 xyz
   end
   begin
      id 8
      name Head
      direction 0.000000 1.000000 0.000000
      length 4.527550
      axis 0.0 0.0 0.0 xyz
      dof rx ry rz
   end
   begin
      id 9
      name LeftShoulder
      direction 1.000000 0.000000 0.000000
      length 7.531907
      axis 0.0 0.0 -90.0 xyz
      dof rx ry rz
   end
   begin
      id 10
      name LeftArm
      direction 1.000000 0.000000 0.000000
      length 10.229199
      axis 0.0 0.0 -90.0 xyz
      dof rx ry rz
   end
   begin
      id 11
      name LeftForeArm
      direction 1.000000 0.000000 0.000000
      length 8.673495
      axis 0.0 0.0 -90.0 xyz
      dof ry rz rx
   end
   begin
      id 12
      name LeftHand
      direction 0.000000 0.000000 0.000000
      length 0.000000
      axis 0.0 0.0 -90.0 xyz
      dof rx ry rz
   end
   begin
      id 13
      name LeftHand_dum1
      direction 0.000000 0.000000 0.000000
      length 0.000000
      axis 0.0 0.0 -90.0 xyz
   end
   begin
      id 14
      name LeftHand_dum2
      direction 1.000000 0.000000 0.000000
      length 3.937000
      axis 0.0 0.0 -90.0 xyz
   end
   begin
      id 15
      name LeftHandThumb1
      direction 0.000000 0.000000 1.000000
      length 3.937000
      axis 0.0 0.0 -90.0 xyz
      dof rx rz ry
   end
   begin
      id 16
      name RightShoulder
      direction -1.000000 0.000000 0.000000
      length 7.531907
      axis 0.0 0.0 90.0 xyz
      dof rx ry rz
   end
   begin
      id 17
      name RightArm
      direction -1.000000 0.000000 0.000000
      length 10.229199
      axis 0.0 0.0 90.0 xyz
      dof rx ry rz
   end
   begin
      id 18
      name RightForeArm
      direction -1.000000 0.000000 0.000000
      length 8.673495
      axis 0.0 0.0 90.0 xyz
      dof ry rz rx
   end
   begin
      id 19
      name RightHand
      direction 0.000000 0.000000 0.000000
      length 0.000000
      axis 0.0 0.0 90.0 xyz
      dof rx ry rz
   end
   begin
      id 20
      name RightHand_dum1
      direction 0.000000 0.000000 0.000000
      length 0.000000
      axis 0.0 0.0 90.0 xyz
   end
   begin
      id 21
      name RightHand_dum2
      direction -1.000000 0.000000 0.000000
      length 3.937000
      axis 0.0 0.0 90.0 xyz
   end
   begin
      id 22
      name RightHandThumb1
      direction 0.000000 0.000000 1.000000
      length 3.937000
      axis 0.0 0.0 90.0 xyz
      dof rx rz ry
   end
   begin
      id 23
      name LeftUpLeg
      direction 0.000000 -1.000000 0.000000
      length 16.263388
      axis 0.0 0.0 0.0 xyz
      dof rx ry rz
   end
   begin
      id 24
      name LeftLeg
      direction 0.000000 -1.000000 0.000000
      length 14.328163
      axis 0.0 0.0 0.0 xyz
      dof rx ry rz
   end
   begin
      id 25
      name LeftFoot
      direction 0.000000 -0.258819 0.965926
      length 5.031290
      axis 15.0 0.0 0.0 xyz
      dof rx ry rz
   end
   begin
      id 26
      name LeftToeBase
      direction 0.000000 0.000000 1.000000
      length 2.952750
      axis 0.0 0.0 0.0 xyz
      dof rx ry rz
   end
   begin
      id 27
      name RightUpLeg
      direction 0.000000 -1.000000 0.000000
      length 16.263388
      axis 0.0 0.0 0.0 xyz
      dof rx ry rz
   end
   begin
      id 28
      name RightLeg
      direction 0.000000 -1.000000 0.000000
      length 14.328163
      axis 0.0 0.0 0.0 xyz
      dof rx ry rz
   end
   begin
      id 29
      name RightFoot
      direction 0.000000 -0.258819 0.965926
      length 5.031290
      axis 15.0 0.0 0.0 xyz
      dof rx ry rz
   end
   begin
      id 30
      name RightToeBase
      direction 0.000000 0.000000 1.000000
      length 2.952750
      axis 0.0 0.0 0.0 xyz
      dof rx ry rz
   end
:hierarchy
   begin
      root Spine_dum LeftUpLeg_dum RightUpLeg_dum
      Spine_dum Spine
      LeftUpLeg_dum LeftUpLeg
      RightUpLeg_dum RightUpLeg
      Spine Spine_dum1 Spine_dum2 Spine_dum3
      Spine_dum1 Head
      Spine_dum2 LeftShoulder
      Spine_dum3 RightShoulder
      LeftShoulder LeftArm
      LeftArm LeftForeArm
      LeftForeArm LeftHand
      LeftHand LeftHand_dum1 LeftHand_dum2
      LeftHand_dum1 LeftHandThumb1
      RightShoulder RightArm
      RightArm RightForeArm
      RightForeArm RightHand
      RightHand RightHand_dum1 RightHand_dum2
      RightHand_dum1 RightHandThumb1
      LeftUpLeg LeftLeg
      LeftLeg LeftFoot
      LeftFoot LeftToeBase
      RightUpLeg RightLeg
      RightLeg RightFoot
      RightFoot RightToeBase
   end

# File created by Blade
# Date/Time:  Wed Apr 08 14:55:03 2015
# Frame Rate: 120.000 fps
#------------------------------------------------------
:FULLY-SPECIFIED
:DEGREES
257
root 3.353165 29.842099 -11.199596 19.823143 -8.794907 -5.998798
Spine -11.787618 8.530880 -1.692947
Head -2.805001 -6.413147 1.779390
LeftShoulder -27.816829 52.909085 2.658212
LeftArm 41.375147 16.579395 -66.365978
LeftForeArm 16.812216 -0.000000 86.732299
LeftHand 5.414127 -0.000000 -6.477794
LeftHandThumb1 -26.253704 0.000000 33.147579
RightShoulder -4.041096 -6.137567 -18.790110
RightArm 17.553302 -20.536694 74.602231
RightForeArm -6.219428 -0.000000 98.442597
RightHand 11.124790 -0.000000 -1.477154
RightHandThumb1 -24.326973 -0.000000 -32.862282
LeftUpLeg -58.517926 5.639479 8.667511
LeftLeg 27.340084 -0.000000 -0.000000
LeftFoot 18.566931 17.379892 -11.187076
LeftToeBase -11.963522 -0.000000 0.000000
RightUpLeg 8.570010 0.031338 5.585106
RightLeg -4.301221 -0.000000 0.000000
RightFoot -21.880484 -8.383467 13.701962
RightToeBase -7.072394 -0.000000 0.000000
258
root 3.428583 29.788239 -10.872568 19.863025 -9.062104 -5.809414
Spine -12.068286 8.930745 -2.176597
Head -3.411910 -6.633748 1.927089
LeftShoulder -28.014938 52.963197 2.649861
LeftArm 40.914402 16.199651 -66.831439
LeftForeArm 16.895947 -0.000000 86.532961
LeftHand 5.451912 -0.000000 -6.472793
LeftHandThumb1 -26.253704 0.000000 33.147579
RightShoulder -3.859021 -5.860454 -18.897826
RightArm 17.744634 -20.527367 74.461742
RightForeArm -6.141856 0.000000 98.816699
RightHand 11.021239 -0.000000 -1.754378
RightHandThumb1 -24.326973 -0.000000 -32.862282
LeftUpLeg -58.478361 5.434594 8.509616
LeftLeg 29.001240 -0.000000 -0.000000
LeftFoot 15.673791 16.903738 -11.911395
LeftToeBase -12.351857 -0.000000 0.000000
RightUpLeg 9.019231 0.046022 5.065839
RightLeg -4.193594 -0.000000 0.000000
RightFoot -21.626368 -8.262489 13.807975
RightToeBase -7.726299 -0.000000 0.000000
259
root 3.504805 29.741438 -10.542694 19.928007 -9.307413 -5.610418
Spine -12.377447 9.327024 -2.686862
Head -4.065730 -6.907777 2.093164
LeftShoulder -28.222607 53.006256 2.619585
LeftArm 40.472292 15.765926 -67.270602
LeftForeArm 17.046360 -0.000000 86.324986
LeftHand 5.605608 -0.000000 -6.167318
LeftHandThumb1 -26.253704 0.000000 33.147579
RightShoulder -3.683736 -5.597827 -18.998725
RightArm 17.924154 -20.393285 74.388336
RightForeArm -6.359411 0.000000 99.199156
RightHand 10.945230 -0.000000 -1.597371
RightHandThumb1 -24.326973 -0.000000 -32.862282
LeftUpLeg -58.368567 5.147594 8.346190
LeftLeg 30.346561 -0.000000 -0.000000
LeftFoot 12.993456 16.583561 -12.276634
LeftToeBase -12.017237 -0.000000 0.000000
RightUpLeg 9.377389 0.106094 4.554257
RightLeg -3.959718 -0.000000 0.000000
RightFoot -21.366344 -8.224315 13.952177
RightToeBase -8.462947 -0.000000 0.000000
260
root 3.584783 29.700629 -10.205270 20.053681 -9.482846 -5.363895
Spine -12.789582 9.639232 -3.240465
Head -4.709339 -7.175077 2.256381
LeftShoulder -28.431838 53.045595 2.570551
LeftArm 39.974593 15.231656 -67.721850
LeftForeArm 17.073427 0.000000 86.134407
LeftHand 5.824758 -0.000000 -6.277287
LeftHandThumb1 -26.253704 0.000000 33.147579
RightShoulder -3.534219 -5.338658 -19.150312
RightArm 18.097394 -20.391442 74.294678
RightForeArm -6.260431 -0.000000 99.540243
RightHand 10.920767 -0.000000 -1.600039
RightHandThumb1 -24.326973 -0.000000 -32.862282
LeftUpLeg -58.218573 4.730942 8.170567
LeftLeg 31.266510 -0.000000 -0.000000
LeftFoot 10.390561 16.552224 -12.754406
LeftToeBase -11.159974 -0.000000 0.000000
RightUpLeg 9.628174 0.061121 4.016122
RightLeg -3.644175 -0.000000 0.000000
RightFoot -21.066637 -8.210652 14.097031
RightToeBase -9.219766 -0.000000 0.000000
261
root 3.667257 29.667906 -9.862088 20.221421 -9.619133 -5.090458
Spine -13.267949 9.910035 -3.834506
Head -5.380547 -7.457668 2.452039
LeftShoulder -28.668149 53.046992 2.517718
LeftArm 39.484305 14.708817 -68.143199
LeftForeArm 17.485267 -0.000000 85.922679
LeftHand 5.812700 -0.000000 -6.422855
LeftHandThumb1 -26.253704 0.000000 33.147579
RightShoulder -3.380194 -5.037920 -19.315709
RightArm 18.155454 -20.386535 74.251539
RightForeArm -6.205089 -0.000000 99.924963
RightHand 10.817872 -0.000000 -1.659985
RightHandThumb1 -24.326973 -0.000000 -32.862282
LeftUpLeg -57.999458 4.238928 7.979954
LeftLeg 31.788303 -0.000000 -0.000000
LeftFoot 7.972147 16.782988 -13.151631
LeftToeBase -9.788196 -0.000000 0.000000
RightUpLeg 9.769331 -0.032718 3.449087
RightLeg -3.193211 -0.000000 0.000000
RightFoot -20.743893 -8.096102 14.339069
RightToeBase -9.991586 -0.000000 0.000000
262
root 3.750428 29.646081 -9.507357 20.355956 -9.746268 -4.691878
Spine -13.767034 10.150028 -4.609966
Head -6.040586 -7.776799 2.736535
LeftShoulder -28.878995 53.042825 2.470599
LeftArm 38.990631 14.065995 -68.524024
LeftForeArm 17.693999 -0.000000 85.700872
LeftHand 5.885947 0.000000 -6.375953
LeftHandThumb1 -26.253704 0.000000 33.147579
RightShoulder -3.261443 -4.783742 -19.397998
RightArm 18.215794 -20.396928 74.170544
RightForeArm -6.461199 -0.000000 100.255028
RightHand 10.946315 -0.000000 -1.772270
RightHandThumb1 -24.326973 -0.000000 -32.862282
LeftUpLeg -57.596624 3.586263 7.730256
LeftLeg 31.934858 -0.000000 -0.000000
LeftFoot 5.696486 17.270149 -13.247039
LeftToeBase -9.133212 -0.000000 0.000000
RightUpLeg 9.901957 -0.193653 2.777634
RightLeg -2.687602 -0.000000 0.000000
RightFoot -20.335551 -8.082853 14.527251
RightToeBase -10.889593 -0.000000 0.000000
